<svg version="1.1" id="Layer_1" xmlns="http://www.w3.org/2000/svg" xmlns:xlink="http://www.w3.org/1999/xlink" x="0px" y="0px"
	 width="100%" viewBox="0 0 64 60" enable-background="new 0 0 64 60" xml:space="preserve">
<path fill="#1D1E20" opacity="1.000000" stroke="none" 
	d="
M65.000000,20.999043 
	C65.000000,34.665894 65.000000,47.832539 65.000000,60.999390 
	C43.666969,60.999596 22.333935,60.999596 1.000678,60.999798 
	C1.000452,41.000328 1.000452,21.000660 1.000226,1.000742 
	C22.332972,1.000495 43.665943,1.000495 64.999458,1.000247 
	C65.000000,7.499614 65.000000,13.999228 65.000000,20.999043 
M24.845282,33.415291 
	C24.845282,24.341469 24.845282,15.267648 24.845282,6.202323 
	C18.909304,6.202323 13.648179,6.202323 8.311304,6.202323 
	C8.311304,22.916367 8.311304,39.416630 8.311304,55.850658 
	C10.109796,55.850658 11.586516,55.850658 13.479027,55.850658 
	C13.479027,52.275349 13.479027,48.850189 13.479027,45.336670 
	C17.450563,45.336670 21.001080,45.336670 25.010500,45.336670 
	C25.010500,49.050701 25.010500,52.453407 25.010500,56.086716 
	C27.042025,55.954082 28.585802,55.853291 29.859455,55.770134 
	C29.859455,49.960884 29.859455,44.711586 29.859455,39.267376 
	C28.128672,39.181442 26.697294,39.110371 24.845291,39.018417 
	C24.845291,37.317753 24.845291,35.854774 24.845282,33.415291 
M35.887543,26.462196 
	C35.411148,23.677998 36.481209,22.711798 39.371067,22.810654 
	C45.480549,23.019646 51.602146,22.874302 57.714310,22.874302 
	C57.714310,20.611916 57.714310,18.895224 57.714310,16.803955 
	C50.307007,16.803955 43.208267,16.803955 35.823765,16.803955 
	C35.943130,14.836686 36.038082,13.271714 36.158722,11.283424 
	C43.683659,11.283424 50.754639,11.283424 58.096169,11.283424 
	C57.972431,9.252755 57.877502,7.694816 57.786953,6.208841 
	C48.439354,6.208841 39.505787,6.208841 30.508709,6.208841 
	C30.508709,15.488228 30.508709,24.523193 30.508709,33.624527 
	C39.823929,33.624527 48.754536,33.624527 57.826385,33.624527 
	C57.826385,31.777819 57.826385,30.181068 57.826385,28.126129 
	C55.669228,28.126129 53.706249,28.188892 51.748531,28.114019 
	C46.492962,27.913019 41.239639,27.653143 35.887543,26.462196 
M41.198200,46.436852 
	C41.198200,44.158714 41.198200,41.880577 41.198200,39.440430 
	C39.200176,39.440430 37.666210,39.440430 36.138344,39.440430 
	C36.138344,45.099514 36.138344,50.453117 36.138344,55.822693 
	C43.549038,55.822693 50.621906,55.822693 57.821198,55.822693 
	C57.821198,54.041172 57.821198,52.460926 57.821198,50.442337 
	C53.181133,50.442337 48.731632,50.342045 44.289799,50.483177 
	C41.946571,50.557629 40.850082,49.804298 41.198200,46.436852 
z"/>
<path fill="#F9F9F9" opacity="1.000000" stroke="none" 
	d="
M24.845287,33.903542 
	C24.845291,35.854774 24.845291,37.317753 24.845291,39.018417 
	C26.697294,39.110371 28.128672,39.181442 29.859455,39.267376 
	C29.859455,44.711586 29.859455,49.960884 29.859455,55.770134 
	C28.585802,55.853291 27.042025,55.954082 25.010500,56.086716 
	C25.010500,52.453407 25.010500,49.050701 25.010500,45.336670 
	C21.001080,45.336670 17.450563,45.336670 13.479027,45.336670 
	C13.479027,48.850189 13.479027,52.275349 13.479027,55.850658 
	C11.586516,55.850658 10.109796,55.850658 8.311304,55.850658 
	C8.311304,39.416630 8.311304,22.916367 8.311304,6.202323 
	C13.648179,6.202323 18.909304,6.202323 24.845282,6.202323 
	C24.845282,15.267648 24.845282,24.341469 24.845287,33.903542 
M18.899492,12.243859 
	C17.266315,11.954401 15.633140,11.664943 13.670797,11.317143 
	C13.670797,20.922050 13.670797,29.805416 13.670797,38.949715 
	C15.463919,38.949715 17.041504,38.949715 19.023127,38.949715 
	C19.023127,30.306078 19.023127,21.709888 18.899492,12.243859 
z"/>
<path fill="#EFF0F0" opacity="1.000000" stroke="none" 
	d="
M35.936485,26.939423 
	C41.239639,27.653143 46.492962,27.913019 51.748531,28.114019 
	C53.706249,28.188892 55.669228,28.126129 57.826385,28.126129 
	C57.826385,30.181068 57.826385,31.777819 57.826385,33.624527 
	C48.754536,33.624527 39.823929,33.624527 30.508709,33.624527 
	C30.508709,24.523193 30.508709,15.488228 30.508709,6.208841 
	C39.505787,6.208841 48.439354,6.208841 57.786953,6.208841 
	C57.877502,7.694816 57.972431,9.252755 58.096169,11.283424 
	C50.754639,11.283424 43.683659,11.283424 36.158722,11.283424 
	C36.038082,13.271714 35.943130,14.836686 35.823765,16.803955 
	C43.208267,16.803955 50.307007,16.803955 57.714310,16.803955 
	C57.714310,18.895224 57.714310,20.611916 57.714310,22.874302 
	C51.602146,22.874302 45.480549,23.019646 39.371067,22.810654 
	C36.481209,22.711798 35.411148,23.677998 35.936485,26.939423 
z"/>
<path fill="#F3F3F3" opacity="1.000000" stroke="none" 
	d="
M41.198616,46.914009 
	C40.850082,49.804298 41.946571,50.557629 44.289799,50.483177 
	C48.731632,50.342045 53.181133,50.442337 57.821198,50.442337 
	C57.821198,52.460926 57.821198,54.041172 57.821198,55.822693 
	C50.621906,55.822693 43.549038,55.822693 36.138344,55.822693 
	C36.138344,50.453117 36.138344,45.099514 36.138344,39.440430 
	C37.666210,39.440430 39.200176,39.440430 41.198200,39.440430 
	C41.198200,41.880577 41.198200,44.158714 41.198616,46.914009 
z"/>
<path fill="#323335" opacity="1.000000" stroke="none" 
	d="
M18.961309,12.678780 
	C19.023127,21.709888 19.023127,30.306078 19.023127,38.949715 
	C17.041504,38.949715 15.463919,38.949715 13.670797,38.949715 
	C13.670797,29.805416 13.670797,20.922050 13.670797,11.317143 
	C15.633140,11.664943 17.266315,11.954401 18.961309,12.678780 
z"/>
</svg>